<?xml version="1.0"?>
<svg xmlns="http://www.w3.org/2000/svg"
     xmlns:xlink="http://www.w3.org/1999/xlink"
     width="760" height="760">
<title>SVG Go Library Description</title>
<rect x="0" y="0" width="760" height="760" style="fill:white"/>
<g style="font-family:Calibri; text-anchor:middle; font-size:14">
<text x="380" y="40" style="font-size:24">SVG Go Library</text>
<desc>Object Definitions</desc>
<defs>
<g id="circle">
<circle cx="0" cy="0" r="4" style="fill:rgb(200,200,200)"/>
<text x="0" y="-15" style="fill:gray; text-anchor:middle">x, y</text>
<circle cx="0" cy="0" r="50" style="fill:none; stroke-width:2; stroke:rgb(127,0,0); opacity:0.75"/>
<line x1="0" y1="0" x2="50" y2="0" style="stroke:black; stroke-width:1"/>
<text x="25" y="15" style="fill:gray; text-anchor:middle">r</text>
<text x="0" y="65" style="fill:black; text-anchor:middle">svg.Circle(x, y, r,...)</text>
</g>
<g id="ellipse">
<circle cx="0" cy="0" r="4" style="fill:rgb(200,200,200)"/>
<text x="0" y="-15" style="fill:gray; text-anchor:middle">x, y</text>
<ellipse cx="0" cy="0" rx="75" ry="50" style="fill:none; stroke-width:2; stroke:rgb(127,0,0); opacity:0.75"/>
<line x1="0" y1="0" x2="75" y2="0" style="stroke:black; stroke-width:1"/>
<line x1="0" y1="0" x2="0" y2="50" style="stroke:black; stroke-width:1"/>
<text x="-15" y="25" style="fill:gray; text-anchor:middle">h</text>
<text x="0" y="65" style="fill:black; text-anchor:middle">svg.Ellipse(x, y, rx ,ry,...)</text>
</g>
<g id="rectangle">
<circle cx="0" cy="0" r="4" style="fill:rgb(200,200,200)"/>
<text x="0" y="-15" style="fill:gray; text-anchor:middle">x, y</text>
<rect x="0" y="0" width="160" height="100" style="fill:none; stroke-width:2; stroke:rgb(127,0,0); opacity:0.75"/>
<text x="-15" y="50" style="fill:gray; text-anchor:middle">h</text>
<text x="80" y="-15" style="fill:gray; text-anchor:middle">w</text>
<text x="80" y="115" style="fill:black; text-anchor:middle">svg.Rect(x, y, w, h,...)</text>
</g>
<g id="roundrect">
<circle cx="0" cy="0" r="4" style="fill:rgb(200,200,200)"/>
<text x="0" y="-15" style="fill:gray; text-anchor:middle">x, y</text>
<rect x="0" y="0" width="160" height="100" rx="25" ry="25" style="fill:none; stroke-width:2; stroke:rgb(127,0,0); opacity:0.75"/>
<text x="-15" y="50" style="fill:gray; text-anchor:middle">h</text>
<text x="80" y="-15" style="fill:gray; text-anchor:middle">w</text>
<line x1="25" y1="0" x2="25" y2="25" style="stroke:black; stroke-width:1"/>
<line x1="0" y1="25" x2="25" y2="25" style="stroke:black; stroke-width:1"/>
<text x="40" y="13" style="fill:gray; text-anchor:middle">ry</text>
<text x="12" y="40" style="fill:gray; text-anchor:middle">rx</text>
<text x="80" y="115" style="fill:black; text-anchor:middle">svg.Roundrect(x,y,rx,ry,...)</text>
</g>
<g id="square">
<circle cx="0" cy="0" r="4" style="fill:rgb(200,200,200)"/>
<text x="0" y="-15" style="fill:gray; text-anchor:middle">x, y</text>
<rect x="0" y="0" width="100" height="100" style="fill:none; stroke-width:2; stroke:rgb(127,0,0); opacity:0.75"/>
<text x="50" y="-15" style="fill:gray; text-anchor:middle">w</text>
<text x="50" y="115" style="fill:black; text-anchor:middle">svg.Square(x, y, w,...)</text>
</g>
<g id="image">
<circle cx="0" cy="0" r="4" style="fill:rgb(200,200,200)"/>
<text x="0" y="-15" style="fill:gray; text-anchor:middle">x, y</text>
<rect x="0" y="0" width="128" height="128" style="fill:none; stroke-width:2; stroke:rgb(127,0,0); opacity:0.75"/>
<text x="-15" y="64" style="fill:gray; text-anchor:middle">h</text>
<text x="64" y="-15" style="fill:gray; text-anchor:middle">w</text>
<image x="0" y="0" width="128" height="128" xlink:href="images/gophercolor128x128.png" />
<text x="64" y="143" style="fill:black; text-anchor:middle">svg.Image(x, y, path,...)</text>
</g>
<g id="arc">
<circle cx="0" cy="0" r="4" style="fill:rgb(200,200,200)"/>
<text x="0" y="-15" style="fill:gray; text-anchor:middle">sx, sy</text>
<circle cx="180" cy="0" r="4" style="fill:rgb(200,200,200)"/>
<text x="180" y="-15" style="fill:gray; text-anchor:middle">ex, ey</text>
<path d="M0,0 A90,40 0 0 1 180,0" style="fill:none; stroke-width:2; stroke:rgb(127,0,0); opacity:0.75"/>
<text x="90" y="15" style="fill:black; text-anchor:middle">svg.Arc(sx, sy, ax, ay, r, lflag, sflag, ...)</text>
</g>
<g id="line">
<circle cx="0" cy="0" r="4" style="fill:rgb(200,200,200)"/>
<text x="0" y="-15" style="fill:gray; text-anchor:middle">x1, y1</text>
<circle cx="240" cy="0" r="4" style="fill:rgb(200,200,200)"/>
<text x="240" y="-15" style="fill:gray; text-anchor:middle">x2, y2</text>
<line x1="0" y1="0" x2="240" y2="0" style="fill:none; stroke-width:2; stroke:rgb(127,0,0); opacity:0.75"/>
<text x="120" y="25" style="fill:black; text-anchor:middle">svg.Line(x1, y1, x2, y2, ...)</text>
</g>
<g id="bezier">
<circle cx="0" cy="0" r="4" style="fill:rgb(200,200,200)"/>
<text x="0" y="-15" style="fill:gray; text-anchor:middle">sx, sy</text>
<circle cx="120" cy="-60" r="4" style="fill:rgb(200,200,200)"/>
<text x="120" y="-75" style="fill:gray; text-anchor:middle">cx, cy</text>
<circle cx="120" cy="60" r="4" style="fill:rgb(200,200,200)"/>
<text x="120" y="45" style="fill:gray; text-anchor:middle">px, py</text>
<circle cx="240" cy="0" r="4" style="fill:rgb(200,200,200)"/>
<text x="240" y="-15" style="fill:gray; text-anchor:middle">ex, ey</text>
<path d="M0,0 C120,-60 120,60 240,0" style="fill:none; stroke-width:2; stroke:rgb(127,0,0); opacity:0.75"/>
<text x="120" y="85" style="fill:black; text-anchor:middle">svg.Bezier(sx, sy, cx, cy, px, py, ex, ey, ...)</text>
</g>
<g id="qbez">
<circle cx="0" cy="0" r="4" style="fill:rgb(200,200,200)"/>
<text x="0" y="-15" style="fill:gray; text-anchor:middle">sx, sy</text>
<circle cx="120" cy="-40" r="4" style="fill:rgb(200,200,200)"/>
<text x="120" y="-55" style="fill:gray; text-anchor:middle">cx, cy</text>
<circle cx="120" cy="40" r="4" style="fill:rgb(200,200,200)"/>
<text x="120" y="25" style="fill:gray; text-anchor:middle">ex, ey</text>
<circle cx="240" cy="0" r="4" style="fill:rgb(200,200,200)"/>
<text x="240" y="-15" style="fill:gray; text-anchor:middle">tx, ty</text>
<path d="M0,0 Q120,-40 120,40 T240,0" style="fill:none; stroke-width:2; stroke:rgb(127,0,0); opacity:0.75"/>
<text x="120" y="85" style="fill:black; text-anchor:middle">svg.Qbezier(sx, sy, cx, cy, ex, ey, tx, ty, ...)</text>
</g>
<g id="polygon">
<circle cx="0" cy="0" r="4" style="fill:rgb(200,200,200)"/>
<text x="0" y="-15" style="fill:gray; text-anchor:middle">x, y</text>
<circle cx="80" cy="24" r="4" style="fill:rgb(200,200,200)"/>
<text x="80" y="9" style="fill:gray; text-anchor:middle">x, y</text>
<circle cx="160" cy="0" r="4" style="fill:rgb(200,200,200)"/>
<text x="160" y="-15" style="fill:gray; text-anchor:middle">x, y</text>
<circle cx="160" cy="90" r="4" style="fill:rgb(200,200,200)"/>
<text x="160" y="75" style="fill:gray; text-anchor:middle">x, y</text>
<circle cx="80" cy="120" r="4" style="fill:rgb(200,200,200)"/>
<text x="80" y="105" style="fill:gray; text-anchor:middle">x, y</text>
<circle cx="0" cy="90" r="4" style="fill:rgb(200,200,200)"/>
<text x="0" y="75" style="fill:gray; text-anchor:middle">x, y</text>
<polygon points="0,0 80,24 160,0 160,90 80,120 0,90 " style="fill:none; stroke-width:2; stroke:rgb(127,0,0); opacity:0.75"/>
<text x="80" y="145" style="fill:black; text-anchor:middle">svg.Polygon(x, y, ...)</text>
</g>
<g id="polyline">
<circle cx="0" cy="0" r="4" style="fill:rgb(200,200,200)"/>
<text x="0" y="-15" style="fill:gray; text-anchor:middle">x, y</text>
<circle cx="120" cy="-20" r="4" style="fill:rgb(200,200,200)"/>
<text x="120" y="-35" style="fill:gray; text-anchor:middle">x, y</text>
<circle cx="180" cy="-13" r="4" style="fill:rgb(200,200,200)"/>
<text x="180" y="-28" style="fill:gray; text-anchor:middle">x, y</text>
<circle cx="240" cy="-40" r="4" style="fill:rgb(200,200,200)"/>
<text x="240" y="-55" style="fill:gray; text-anchor:middle">x, y</text>
<polyline points="0,0 120,-20 180,-13 240,-40 " style="fill:none; stroke-width:2; stroke:rgb(127,0,0); opacity:0.75"/>
<text x="120" y="15" style="fill:black; text-anchor:middle">svg.Polyline(x, y, ...)</text>
</g>
</defs>
<desc>Object Usage</desc>
<use x="40" y="80" xlink:href="#rectangle" />
<use x="40" y="240" xlink:href="#roundrect" />
<use x="40" y="580" xlink:href="#polygon" />
<use x="120" y="420" xlink:href="#ellipse" />
<use x="260" y="280" xlink:href="#arc" />
<use x="280" y="580" xlink:href="#image" />
<use x="300" y="80" xlink:href="#square" />
<use x="345" y="420" xlink:href="#circle" />
<use x="480" y="280" xlink:href="#polyline" />
<use x="480" y="140" xlink:href="#line" />
<use x="480" y="420" xlink:href="#bezier" />
<use x="480" y="620" xlink:href="#qbez" />
</g>
<g style="stroke:black;opacity:0.1">
<line x1="0" y1="0" x2="0" y2="760" />
<line x1="20" y1="0" x2="20" y2="760" />
<line x1="40" y1="0" x2="40" y2="760" />
<line x1="60" y1="0" x2="60" y2="760" />
<line x1="80" y1="0" x2="80" y2="760" />
<line x1="100" y1="0" x2="100" y2="760" />
<line x1="120" y1="0" x2="120" y2="760" />
<line x1="140" y1="0" x2="140" y2="760" />
<line x1="160" y1="0" x2="160" y2="760" />
<line x1="180" y1="0" x2="180" y2="760" />
<line x1="200" y1="0" x2="200" y2="760" />
<line x1="220" y1="0" x2="220" y2="760" />
<line x1="240" y1="0" x2="240" y2="760" />
<line x1="260" y1="0" x2="260" y2="760" />
<line x1="280" y1="0" x2="280" y2="760" />
<line x1="300" y1="0" x2="300" y2="760" />
<line x1="320" y1="0" x2="320" y2="760" />
<line x1="340" y1="0" x2="340" y2="760" />
<line x1="360" y1="0" x2="360" y2="760" />
<line x1="380" y1="0" x2="380" y2="760" />
<line x1="400" y1="0" x2="400" y2="760" />
<line x1="420" y1="0" x2="420" y2="760" />
<line x1="440" y1="0" x2="440" y2="760" />
<line x1="460" y1="0" x2="460" y2="760" />
<line x1="480" y1="0" x2="480" y2="760" />
<line x1="500" y1="0" x2="500" y2="760" />
<line x1="520" y1="0" x2="520" y2="760" />
<line x1="540" y1="0" x2="540" y2="760" />
<line x1="560" y1="0" x2="560" y2="760" />
<line x1="580" y1="0" x2="580" y2="760" />
<line x1="600" y1="0" x2="600" y2="760" />
<line x1="620" y1="0" x2="620" y2="760" />
<line x1="640" y1="0" x2="640" y2="760" />
<line x1="660" y1="0" x2="660" y2="760" />
<line x1="680" y1="0" x2="680" y2="760" />
<line x1="700" y1="0" x2="700" y2="760" />
<line x1="720" y1="0" x2="720" y2="760" />
<line x1="740" y1="0" x2="740" y2="760" />
<line x1="760" y1="0" x2="760" y2="760" />
<line x1="0" y1="0" x2="760" y2="0" />
<line x1="0" y1="20" x2="760" y2="20" />
<line x1="0" y1="40" x2="760" y2="40" />
<line x1="0" y1="60" x2="760" y2="60" />
<line x1="0" y1="80" x2="760" y2="80" />
<line x1="0" y1="100" x2="760" y2="100" />
<line x1="0" y1="120" x2="760" y2="120" />
<line x1="0" y1="140" x2="760" y2="140" />
<line x1="0" y1="160" x2="760" y2="160" />
<line x1="0" y1="180" x2="760" y2="180" />
<line x1="0" y1="200" x2="760" y2="200" />
<line x1="0" y1="220" x2="760" y2="220" />
<line x1="0" y1="240" x2="760" y2="240" />
<line x1="0" y1="260" x2="760" y2="260" />
<line x1="0" y1="280" x2="760" y2="280" />
<line x1="0" y1="300" x2="760" y2="300" />
<line x1="0" y1="320" x2="760" y2="320" />
<line x1="0" y1="340" x2="760" y2="340" />
<line x1="0" y1="360" x2="760" y2="360" />
<line x1="0" y1="380" x2="760" y2="380" />
<line x1="0" y1="400" x2="760" y2="400" />
<line x1="0" y1="420" x2="760" y2="420" />
<line x1="0" y1="440" x2="760" y2="440" />
<line x1="0" y1="460" x2="760" y2="460" />
<line x1="0" y1="480" x2="760" y2="480" />
<line x1="0" y1="500" x2="760" y2="500" />
<line x1="0" y1="520" x2="760" y2="520" />
<line x1="0" y1="540" x2="760" y2="540" />
<line x1="0" y1="560" x2="760" y2="560" />
<line x1="0" y1="580" x2="760" y2="580" />
<line x1="0" y1="600" x2="760" y2="600" />
<line x1="0" y1="620" x2="760" y2="620" />
<line x1="0" y1="640" x2="760" y2="640" />
<line x1="0" y1="660" x2="760" y2="660" />
<line x1="0" y1="680" x2="760" y2="680" />
<line x1="0" y1="700" x2="760" y2="700" />
<line x1="0" y1="720" x2="760" y2="720" />
<line x1="0" y1="740" x2="760" y2="740" />
<line x1="0" y1="760" x2="760" y2="760" />
</g>
</svg>
