<?xml version="1.0"?>
<!-- Generated by SVGo -->
<svg width="2200" height="1650"
     xmlns="http://www.w3.org/2000/svg" 
     xmlns:xlink="http://www.w3.org/1999/xlink">
<desc>Object Definitions</desc>
<defs>
<linearGradient id="linear" x1="0%" y1="0%" x2="100%" y2="0%">
<stop offset="0%" stop-color="red" stop-opacity="1.00"/>
<stop offset="50%" stop-color="gray" stop-opacity="1.00"/>
<stop offset="100%" stop-color="black" stop-opacity="1.00"/>
</linearGradient>
<radialGradient id="radial" cx="0%" cy="0%" r="100%" fx="50%" fy="50%">
<stop offset="0%" stop-color="red" stop-opacity="1.00"/>
<stop offset="50%" stop-color="gray" stop-opacity="1.00"/>
<stop offset="100%" stop-color="black" stop-opacity="1.00"/>
</radialGradient>
<g id="square">
<circle cx="0" cy="0" r="4" style="fill:rgb(220,220,220)"/>
<text x="0" y="-20" style="fill:gray; text-anchor:middle">x, y</text>
<rect x="0" y="0" width="100" height="100" style="fill:none; stroke-width:2; stroke:rgb(127,0,0)"/>
<text x="50" y="-20" style="fill:gray; text-anchor:middle">w</text>
<text x="50" y="120" style="fill:black; text-anchor:middle;font-size:20px">Square(x, y, w, ...style)</text>
</g>
<g id="rect">
<circle cx="0" cy="0" r="4" style="fill:rgb(220,220,220)"/>
<text x="0" y="-20" style="fill:gray; text-anchor:middle">x, y</text>
<rect x="0" y="0" width="250" height="125" style="fill:none; stroke-width:2; stroke:rgb(127,0,0)"/>
<text x="-20" y="62" style="fill:gray; text-anchor:middle">h</text>
<text x="125" y="-20" style="fill:gray; text-anchor:middle">w</text>
<text x="125" y="145" style="fill:black; text-anchor:middle;font-size:20px">Rect(x, y, w, h, ...style)</text>
</g>
<g id="crect">
<circle cx="125" cy="62" r="4" style="fill:rgb(220,220,220)"/>
<text x="125" y="42" style="fill:gray; text-anchor:middle">x, y</text>
<rect x="0" y="0" width="250" height="125" style="fill:none; stroke-width:2; stroke:rgb(127,0,0)"/>
<text x="-20" y="62" style="fill:gray; text-anchor:middle">h</text>
<text x="125" y="-20" style="fill:gray; text-anchor:middle">w</text>
<text x="125" y="145" style="fill:black; text-anchor:middle;font-size:20px">CenterRect(x, y, w, h, ...style)</text>
</g>
<g id="roundrect">
<circle cx="0" cy="0" r="4" style="fill:rgb(220,220,220)"/>
<text x="0" y="-20" style="fill:gray; text-anchor:middle">x, y</text>
<rect x="0" y="0" width="250" height="125" rx="25" ry="25" style="fill:none; stroke-width:2; stroke:rgb(127,0,0)"/>
<text x="-20" y="62" style="fill:gray; text-anchor:middle">h</text>
<text x="125" y="-20" style="fill:gray; text-anchor:middle">w</text>
<line x1="25" y1="0" x2="25" y2="25" style="stroke:black; stroke-width:1"/>
<line x1="0" y1="25" x2="25" y2="25" style="stroke:black; stroke-width:1"/>
<text x="45" y="13" style="fill:gray; text-anchor:middle">ry</text>
<text x="12" y="45" style="fill:gray; text-anchor:middle">rx</text>
<text x="125" y="145" style="fill:black; text-anchor:middle;font-size:20px">Roundrect(x, y, w, h, rx, ry, ...style)</text>
</g>
<g id="polygon">
<circle cx="0" cy="0" r="4" style="fill:rgb(220,220,220)"/>
<text x="0" y="-20" style="fill:gray; text-anchor:middle">x, y</text>
<circle cx="125" cy="-31" r="4" style="fill:rgb(220,220,220)"/>
<text x="125" y="-51" style="fill:gray; text-anchor:middle">x, y</text>
<circle cx="250" cy="0" r="4" style="fill:rgb(220,220,220)"/>
<text x="250" y="-20" style="fill:gray; text-anchor:middle">x, y</text>
<circle cx="250" cy="93" r="4" style="fill:rgb(220,220,220)"/>
<text x="250" y="73" style="fill:gray; text-anchor:middle">x, y</text>
<circle cx="125" cy="62" r="4" style="fill:rgb(220,220,220)"/>
<text x="125" y="42" style="fill:gray; text-anchor:middle">x, y</text>
<circle cx="0" cy="93" r="4" style="fill:rgb(220,220,220)"/>
<text x="0" y="73" style="fill:gray; text-anchor:middle">x, y</text>
<polygon points="0,0 125,-31 250,0 250,93 125,62 0,93 " style="fill:none; stroke-width:2; stroke:rgb(127,0,0)"/>
<text x="125" y="145" style="fill:black; text-anchor:middle;font-size:20px">Polygon(x, y, ...style)</text>
</g>
<g id="circle">
<g transform="translate(125,62)">
<circle cx="0" cy="0" r="4" style="fill:rgb(220,220,220)"/>
<text x="0" y="-20" style="fill:gray; text-anchor:middle">x, y</text>
<circle cx="0" cy="0" r="62" style="fill:none; stroke-width:2; stroke:rgb(127,0,0)"/>
<line x1="0" y1="0" x2="62" y2="0" style="stroke:black; stroke-width:1"/>
<text x="31" y="20" style="fill:gray; text-anchor:middle">r</text>
<text x="0" y="82" style="fill:black; text-anchor:middle;font-size:20px">Circle(x, y, r, ...style)</text>
</g>
</g>
<g id="ellipse">
<g transform="translate(125,62)">
<circle cx="0" cy="0" r="4" style="fill:rgb(220,220,220)"/>
<text x="0" y="-20" style="fill:gray; text-anchor:middle">x, y</text>
<ellipse cx="0" cy="0" rx="125" ry="62" style="fill:none; stroke-width:2; stroke:rgb(127,0,0)"/>
<line x1="0" y1="0" x2="125" y2="0" style="stroke:black; stroke-width:1"/>
<line x1="0" y1="0" x2="0" y2="62" style="stroke:black; stroke-width:1"/>
<text x="62" y="20" style="fill:gray; text-anchor:middle">rx</text>
<text x="-20" y="31" style="fill:gray; text-anchor:middle">ry</text>
<text x="0" y="82" style="fill:black; text-anchor:middle;font-size:20px">Ellipse(x, y, rx, ry, ...style)</text>
</g>
</g>
<g id="line">
<circle cx="0" cy="0" r="4" style="fill:rgb(220,220,220)"/>
<text x="0" y="-20" style="fill:gray; text-anchor:middle">x1, y1</text>
<circle cx="250" cy="0" r="4" style="fill:rgb(220,220,220)"/>
<text x="250" y="-20" style="fill:gray; text-anchor:middle">x2, y2</text>
<line x1="0" y1="0" x2="250" y2="0" style="fill:none; stroke-width:2; stroke:rgb(127,0,0)"/>
<text x="125" y="35" style="fill:black; text-anchor:middle;font-size:20px">Line(x1, y1, x2, y2, ...style)</text>
</g>
<g id="polyline">
<circle cx="0" cy="0" r="4" style="fill:rgb(220,220,220)"/>
<text x="0" y="-20" style="fill:gray; text-anchor:middle">x, y</text>
<circle cx="83" cy="-31" r="4" style="fill:rgb(220,220,220)"/>
<text x="83" y="-51" style="fill:gray; text-anchor:middle">x, y</text>
<circle cx="187" cy="-20" r="4" style="fill:rgb(220,220,220)"/>
<text x="187" y="-40" style="fill:gray; text-anchor:middle">x, y</text>
<circle cx="250" cy="-62" r="4" style="fill:rgb(220,220,220)"/>
<text x="250" y="-82" style="fill:gray; text-anchor:middle">x, y</text>
<polyline points="0,0 83,-31 187,-20 250,-62 " style="fill:none; stroke-width:2; stroke:rgb(127,0,0)"/>
<text x="83" y="19" style="fill:black; text-anchor:middle;font-size:20px">Polyline(x, y, ...style)</text>
</g>
<g id="arc">
<circle cx="0" cy="0" r="4" style="fill:rgb(220,220,220)"/>
<text x="0" y="-20" style="fill:gray; text-anchor:middle">sx, sy</text>
<circle cx="250" cy="0" r="4" style="fill:rgb(220,220,220)"/>
<text x="250" y="-20" style="fill:gray; text-anchor:middle">ex, ey</text>
<path d="M0,0 A62,62 0 0 1 250,0" style="fill:none; stroke-width:2; stroke:rgb(127,0,0)"/>
<text x="125" y="82" style="fill:black; text-anchor:middle;font-size:20px">Arc(sx, sy, ax, ay, r, lflag, sflag, ex, ey, ...style)</text>
</g>
<g id="path">
<path d="M36,5l12,41l12-41h33v4l-13,21c30,10,2,69-21,28l7-2c15,27,33,-22,3,-19v-4l12-20h-15l-17,59h-1l-13-42l-12,42h-1l-20-67h9l12,41l8-28l-4-13h9" fill="#AA0000" />
<path d="M94,53c15,32,30,14,35,7l-1-7c-16,26-32,3-34,0M122,16c-10-21-34,0-21,30c-5-30 16,-38 23,-21l5-10l-2-9" />
<circle cx="0" cy="0" r="4" style="fill:rgb(220,220,220)"/>
<text x="0" y="-20" style="fill:gray; text-anchor:middle">x, y</text>
<text x="62" y="102" style="fill:black; text-anchor:middle;font-size:20px">Path(s, ...style)</text>
</g>
<g id="qbez">
<circle cx="0" cy="0" r="4" style="fill:rgb(220,220,220)"/>
<text x="0" y="-20" style="fill:gray; text-anchor:middle">sx, sy</text>
<circle cx="41" cy="-93" r="4" style="fill:rgb(220,220,220)"/>
<text x="41" y="-113" style="fill:gray; text-anchor:middle">cx, cy</text>
<circle cx="250" cy="0" r="4" style="fill:rgb(220,220,220)"/>
<text x="250" y="-20" style="fill:gray; text-anchor:middle">ex, ey</text>
<path d="M0,0 Q41,-93 250,0" style="fill:none; stroke-width:2; stroke:rgb(127,0,0)"/>
<text x="125" y="82" style="fill:black; text-anchor:middle;font-size:20px">Qbez(sx, sy, cx, cy, ex, ey, ...style)</text>
</g>
<g id="qbezier">
<circle cx="0" cy="0" r="4" style="fill:rgb(220,220,220)"/>
<text x="0" y="-20" style="fill:gray; text-anchor:middle">sx, sy</text>
<circle cx="125" cy="-62" r="4" style="fill:rgb(220,220,220)"/>
<text x="125" y="-82" style="fill:gray; text-anchor:middle">cx, cy</text>
<circle cx="125" cy="62" r="4" style="fill:rgb(220,220,220)"/>
<text x="125" y="42" style="fill:gray; text-anchor:middle">px, py</text>
<circle cx="250" cy="0" r="4" style="fill:rgb(220,220,220)"/>
<text x="250" y="-20" style="fill:gray; text-anchor:middle">tx, ty</text>
<path d="M0,0 Q125,-62 125,62 T250,0" style="fill:none; stroke-width:2; stroke:rgb(127,0,0)"/>
<text x="125" y="122" style="fill:black; text-anchor:middle;font-size:20px">Qbezier(sx, sy, cx, cy, ex, ey, tx, ty, ...style)</text>
</g>
<g id="bezier">
<circle cx="0" cy="0" r="4" style="fill:rgb(220,220,220)"/>
<text x="0" y="-20" style="fill:gray; text-anchor:middle">sx, sy</text>
<circle cx="125" cy="-62" r="4" style="fill:rgb(220,220,220)"/>
<text x="125" y="-82" style="fill:gray; text-anchor:middle">cx, cy</text>
<circle cx="125" cy="62" r="4" style="fill:rgb(220,220,220)"/>
<text x="125" y="42" style="fill:gray; text-anchor:middle">px, py</text>
<circle cx="250" cy="0" r="4" style="fill:rgb(220,220,220)"/>
<text x="250" y="-20" style="fill:gray; text-anchor:middle">ex, ey</text>
<path d="M0,0 C125,-62 125,62 250,0" style="fill:none; stroke-width:2; stroke:rgb(127,0,0)"/>
<text x="125" y="82" style="fill:black; text-anchor:middle;font-size:20px">Bezier(sx, sy, cx, cy, px, py, ex, ey, ...style)</text>
</g>
<g id="image">
<circle cx="0" cy="0" r="4" style="fill:rgb(220,220,220)"/>
<text x="0" y="-20" style="fill:gray; text-anchor:middle">x, y</text>
<rect x="0" y="0" width="128" height="128" style="fill:none; stroke-width:2; stroke:rgb(127,0,0)"/>
<text x="-20" y="64" style="fill:gray; text-anchor:middle">h</text>
<text x="64" y="-20" style="fill:gray; text-anchor:middle">w</text>
<image x="0" y="0" width="128" height="128" xlink:href="images/gophercolor128x128.png" />
<text x="64" y="148" style="fill:black; text-anchor:middle;font-size:20px">Image(x, y, w, h, path, ...style)</text>
</g>
<g id="lgrad">
<circle cx="0" cy="0" r="4" style="fill:rgb(220,220,220)"/>
<text x="0" y="-20" style="fill:gray; text-anchor:middle">x1%, y1%</text>
<circle cx="250" cy="0" r="4" style="fill:rgb(220,220,220)"/>
<text x="250" y="-20" style="fill:gray; text-anchor:middle">x2%, y2%</text>
<rect x="0" y="0" width="250" height="125" style="fill:url(#linear)"/>
<text x="125" y="145" style="fill:black; text-anchor:middle;font-size:20px">LinearGradient(id, x1, y1, x2, y2, oc)</text>
</g>
<g id="rgrad">
<circle cx="0" cy="0" r="4" style="fill:rgb(220,220,220)"/>
<text x="0" y="-20" style="fill:gray; text-anchor:middle">cx%, cy%</text>
<rect x="0" y="0" width="250" height="125" style="fill:url(#radial)"/>
<circle cx="125" cy="62" r="4" style="fill:rgb(220,220,220)"/>
<text x="125" y="42" style="fill:gray; text-anchor:middle">fx%, fy%</text>
<text x="125" y="145" style="fill:black; text-anchor:middle;font-size:20px">RadialGradient(id, cx, cy, r, fx, fy, oc)</text>
</g>
<g id="trans">
<circle cx="0" cy="0" r="4" style="fill:rgb(220,220,220)"/>
<text x="0" y="-20" style="fill:gray; text-anchor:middle">0, 0</text>
<circle cx="167" cy="0" r="4" style="fill:rgb(220,220,220)"/>
<text x="167" y="-20" style="fill:gray; text-anchor:middle">x, y</text>
<text x="125" y="145" style="fill:black; text-anchor:middle;font-size:20px">Translate(x, y)</text>
<rect x="0" y="0" width="83" height="125" style="fill:rgb(127,0,0);fill-opacity:0.25"/>
<g transform="translate(167,0)">
<rect x="0" y="0" width="83" height="125" style="fill:none; stroke-width:2; stroke:rgb(127,0,0)"/>
</g>
</g>
<g id="grid">
<circle cx="0" cy="0" r="4" style="fill:rgb(220,220,220)"/>
<text x="0" y="-20" style="fill:gray; text-anchor:middle">x, y</text>
<text x="-20" y="62" style="fill:gray; text-anchor:middle">h</text>
<text x="125" y="-20" style="fill:gray; text-anchor:middle">w</text>
<text x="51" y="15" style="fill:gray; text-anchor:middle">n</text>
<g style="stroke:rgb(127,0,0)">
<line x1="0" y1="0" x2="0" y2="125" />
<line x1="31" y1="0" x2="31" y2="125" />
<line x1="62" y1="0" x2="62" y2="125" />
<line x1="93" y1="0" x2="93" y2="125" />
<line x1="124" y1="0" x2="124" y2="125" />
<line x1="155" y1="0" x2="155" y2="125" />
<line x1="186" y1="0" x2="186" y2="125" />
<line x1="217" y1="0" x2="217" y2="125" />
<line x1="248" y1="0" x2="248" y2="125" />
<line x1="0" y1="0" x2="250" y2="0" />
<line x1="0" y1="31" x2="250" y2="31" />
<line x1="0" y1="62" x2="250" y2="62" />
<line x1="0" y1="93" x2="250" y2="93" />
<line x1="0" y1="124" x2="250" y2="124" />
</g>
<text x="125" y="145" style="fill:black; text-anchor:middle;font-size:20px">Grid(x, y, w, h, n, ...style)</text>
</g>
<g id="text">
<circle cx="0" cy="62" r="4" style="fill:rgb(220,220,220)"/>
<text x="0" y="82" style="fill:gray; text-anchor:middle">x, y</text>
<text x="0" y="62" style="text-anchor:start;font-size:32pt">hello, SVG</text>
<text x="125" y="145" style="fill:black; text-anchor:middle;font-size:20px">Text(x, y, s, ...style)</text>
</g>
<g id="scale">
<circle cx="0" cy="0" r="4" style="fill:rgb(220,220,220)"/>
<text x="0" y="-20" style="fill:gray; text-anchor:middle">0, 0</text>
<rect x="0" y="0" width="250" height="125" style="fill:none; stroke-width:2; stroke:rgb(127,0,0)"/>
<g transform="scale(0.5)">
<rect x="0" y="0" width="250" height="125" style="fill:rgb(127,0,0);fill-opacity:0.25"/>
</g>
<text x="125" y="145" style="fill:black; text-anchor:middle;font-size:20px">Scale(n)</text>
</g>
<g id="rotate">
<circle cx="0" cy="0" r="4" style="fill:rgb(220,220,220)"/>
<text x="0" y="-20" style="fill:gray; text-anchor:middle">0, 0</text>
<text x="125" y="145" style="fill:black; text-anchor:middle;font-size:20px">Rotate(n)</text>
<rect x="0" y="0" width="250" height="125" style="fill:rgb(127,0,0);fill-opacity:0.25"/>
<path d="M125,0 Q135,31 108,62" style="fill:none;stroke:gray"/>
<text x="62" y="20" style="fill:gray; text-anchor:middle">n</text>
<g transform="rotate(30)">
<rect x="0" y="0" width="250" height="125" style="fill:none; stroke-width:2; stroke:rgb(127,0,0)"/>
</g>
</g>
</defs>
<title>SVG Go Library Description</title>
<rect x="0" y="0" width="2200" height="1650" style="fill:white;stroke:black;stroke-width:2"/>
<g style="font-family:Calibri; text-anchor:middle; font-size:18px">
<text x="1100" y="75" style="font-size:50px">SVG Go Library</text>
<desc>Object Usage</desc>
<g transform="translate(120,200)">
<use x="0" y="0" xlink:href="#rect" />
<use x="350" y="0" xlink:href="#crect" />
<use x="700" y="0" xlink:href="#roundrect" />
<use x="1050" y="0" xlink:href="#square" />
<use x="1400" y="0" xlink:href="#line" />
<use x="1750" y="0" xlink:href="#polyline" />
</g>
<g transform="translate(120,600)">
<use x="0" y="0" xlink:href="#polygon" />
<use x="350" y="0" xlink:href="#circle" />
<use x="700" y="0" xlink:href="#ellipse" />
<use x="1050" y="0" xlink:href="#arc" />
<use x="1400" y="0" xlink:href="#qbez" />
<use x="1750" y="0" xlink:href="#bezier" />
</g>
<g transform="translate(120,1000)">
<use x="0" y="0" xlink:href="#trans" />
<use x="350" y="0" xlink:href="#scale" />
<use x="700" y="0" xlink:href="#rotate" />
<use x="1050" y="0" xlink:href="#grid" />
<use x="1400" y="0" xlink:href="#lgrad" />
<use x="1750" y="0" xlink:href="#rgrad" />
</g>
<g transform="translate(120,1400)">
<use x="0" y="0" xlink:href="#text" />
<use x="350" y="0" xlink:href="#image" />
<use x="700" y="0" xlink:href="#path" />
</g>
</g>
</svg>
