<?xml version="1.0"?>
<!-- Generated by SVGo -->
<svg width="1400" height="1400"
     xmlns="http://www.w3.org/2000/svg" 
     xmlns:xlink="http://www.w3.org/1999/xlink">
<title>SVG Go Library Description</title>
<defs>
<linearGradient id="linear" x1="0%" y1="0%" x2="100%" y2="0%">
<stop offset="0%" stop-color="red" stop-opacity="1.00"/>
<stop offset="50%" stop-color="gray" stop-opacity="1.00"/>
<stop offset="100%" stop-color="black" stop-opacity="1.00"/>
</linearGradient>
<radialGradient id="radial" cx="0%" cy="0%" r="100%" fx="50%" fy="50%">
<stop offset="0%" stop-color="red" stop-opacity="1.00"/>
<stop offset="50%" stop-color="gray" stop-opacity="1.00"/>
<stop offset="100%" stop-color="black" stop-opacity="1.00"/>
</radialGradient>
</defs>
<rect x="0" y="0" width="1400" height="1400" style="fill:white;stroke:black;stroke-width:2"/>
<g style="font-family:Calibri; text-anchor:middle; font-size:14px">
<text x="700" y="100" style="font-size:50px">SVG Go Library</text>
<desc>Object Definitions</desc>
<defs>
<g id="square">
<circle cx="0" cy="0" r="4" style="fill:rgb(200,200,200)"/>
<text x="0" y="-15" style="fill:gray; text-anchor:middle">x, y</text>
<rect x="0" y="0" width="100" height="100" style="fill:none; stroke-width:2; stroke:rgb(127,0,0)"/>
<text x="50" y="-15" style="fill:gray; text-anchor:middle">w</text>
<text x="50" y="115" style="fill:black; text-anchor:middle;font-size:16px">Square(x, y, w,...style)</text>
</g>
<g id="rectangle">
<circle cx="0" cy="0" r="4" style="fill:rgb(200,200,200)"/>
<text x="0" y="-15" style="fill:gray; text-anchor:middle">x, y</text>
<circle cx="75" cy="50" r="4" style="fill:rgb(200,200,200)"/>
<text x="75" y="35" style="fill:gray; text-anchor:middle">x, y</text>
<rect x="0" y="0" width="150" height="100" style="fill:none; stroke-width:2; stroke:rgb(127,0,0)"/>
<text x="-15" y="50" style="fill:gray; text-anchor:middle">h</text>
<text x="75" y="-15" style="fill:gray; text-anchor:middle">w</text>
<text x="75" y="115" style="fill:black; text-anchor:middle;font-size:16px">Rect(x, y, w, h,...style)</text>
<text x="75" y="137" style="fill:black; text-anchor:middle;font-size:16px">CenterRect(x, y, w, h, ...style)</text>
</g>
<g id="crect">
<circle cx="0" cy="0" r="4" style="fill:rgb(200,200,200)"/>
<text x="0" y="-15" style="fill:gray; text-anchor:middle">x, y</text>
<circle cx="75" cy="50" r="4" style="fill:rgb(200,200,200)"/>
<text x="75" y="35" style="fill:gray; text-anchor:middle">x, y</text>
<rect x="0" y="0" width="150" height="100" style="fill:none; stroke-width:2; stroke:rgb(127,0,0)"/>
<text x="-15" y="50" style="fill:gray; text-anchor:middle">h</text>
<text x="75" y="-15" style="fill:gray; text-anchor:middle">w</text>
<text x="75" y="115" style="fill:black; text-anchor:middle;font-size:16px">CenterRect(x, y, w, h,...style)</text>
</g>
<g id="roundrect">
<circle cx="0" cy="0" r="4" style="fill:rgb(200,200,200)"/>
<text x="0" y="-15" style="fill:gray; text-anchor:middle">x, y</text>
<rect x="0" y="0" width="200" height="100" rx="25" ry="25" style="fill:none; stroke-width:2; stroke:rgb(127,0,0)"/>
<text x="-15" y="50" style="fill:gray; text-anchor:middle">h</text>
<text x="100" y="-15" style="fill:gray; text-anchor:middle">w</text>
<line x1="25" y1="0" x2="25" y2="25" style="stroke:black; stroke-width:1"/>
<line x1="0" y1="25" x2="25" y2="25" style="stroke:black; stroke-width:1"/>
<text x="40" y="13" style="fill:gray; text-anchor:middle">ry</text>
<text x="12" y="40" style="fill:gray; text-anchor:middle">rx</text>
<text x="100" y="115" style="fill:black; text-anchor:middle;font-size:16px">Roundrect(x,y,w,h,rx,ry, ...style)</text>
</g>
<g id="polygon">
<circle cx="0" cy="0" r="4" style="fill:rgb(200,200,200)"/>
<text x="0" y="-15" style="fill:gray; text-anchor:middle">x, y</text>
<circle cx="100" cy="24" r="4" style="fill:rgb(200,200,200)"/>
<text x="100" y="9" style="fill:gray; text-anchor:middle">x, y</text>
<circle cx="200" cy="0" r="4" style="fill:rgb(200,200,200)"/>
<text x="200" y="-15" style="fill:gray; text-anchor:middle">x, y</text>
<circle cx="200" cy="90" r="4" style="fill:rgb(200,200,200)"/>
<text x="200" y="75" style="fill:gray; text-anchor:middle">x, y</text>
<circle cx="100" cy="120" r="4" style="fill:rgb(200,200,200)"/>
<text x="100" y="105" style="fill:gray; text-anchor:middle">x, y</text>
<circle cx="0" cy="90" r="4" style="fill:rgb(200,200,200)"/>
<text x="0" y="75" style="fill:gray; text-anchor:middle">x, y</text>
<polygon points="0,0 100,24 200,0 200,90 100,120 0,90 " style="fill:none; stroke-width:2; stroke:rgb(127,0,0)"/>
<text x="100" y="145" style="fill:black; text-anchor:middle;font-size:16px">Polygon(x, y, ...style)</text>
</g>
<g id="circle">
<circle cx="0" cy="0" r="4" style="fill:rgb(200,200,200)"/>
<text x="0" y="-15" style="fill:gray; text-anchor:middle">x, y</text>
<circle cx="0" cy="0" r="50" style="fill:none; stroke-width:2; stroke:rgb(127,0,0)"/>
<line x1="0" y1="0" x2="50" y2="0" style="stroke:black; stroke-width:1"/>
<text x="25" y="15" style="fill:gray; text-anchor:middle">r</text>
<text x="0" y="65" style="fill:black; text-anchor:middle;font-size:16px">Circle(x, y, r,...style)</text>
</g>
<g id="ellipse">
<circle cx="0" cy="0" r="4" style="fill:rgb(200,200,200)"/>
<text x="0" y="-15" style="fill:gray; text-anchor:middle">x, y</text>
<ellipse cx="0" cy="0" rx="75" ry="50" style="fill:none; stroke-width:2; stroke:rgb(127,0,0)"/>
<line x1="0" y1="0" x2="75" y2="0" style="stroke:black; stroke-width:1"/>
<line x1="0" y1="0" x2="0" y2="50" style="stroke:black; stroke-width:1"/>
<text x="37" y="15" style="fill:gray; text-anchor:middle">rx</text>
<text x="-15" y="25" style="fill:gray; text-anchor:middle">ry</text>
<text x="0" y="65" style="fill:black; text-anchor:middle;font-size:16px">Ellipse(x, y, rx ,ry,...style)</text>
</g>
<g id="line">
<circle cx="0" cy="0" r="4" style="fill:rgb(200,200,200)"/>
<text x="0" y="-15" style="fill:gray; text-anchor:middle">x1, y1</text>
<circle cx="200" cy="0" r="4" style="fill:rgb(200,200,200)"/>
<text x="200" y="-15" style="fill:gray; text-anchor:middle">x2, y2</text>
<line x1="0" y1="0" x2="200" y2="0" style="fill:none; stroke-width:2; stroke:rgb(127,0,0)"/>
<text x="100" y="25" style="fill:black; text-anchor:middle;font-size:16px">Line(x1, y1, x2, y2, ...style)</text>
</g>
<g id="polyline">
<circle cx="0" cy="0" r="4" style="fill:rgb(200,200,200)"/>
<text x="0" y="-15" style="fill:gray; text-anchor:middle">x, y</text>
<circle cx="66" cy="-25" r="4" style="fill:rgb(200,200,200)"/>
<text x="66" y="-40" style="fill:gray; text-anchor:middle">x, y</text>
<circle cx="150" cy="-16" r="4" style="fill:rgb(200,200,200)"/>
<text x="150" y="-31" style="fill:gray; text-anchor:middle">x, y</text>
<circle cx="200" cy="-50" r="4" style="fill:rgb(200,200,200)"/>
<text x="200" y="-65" style="fill:gray; text-anchor:middle">x, y</text>
<polyline points="0,0 66,-25 150,-16 200,-50 " style="fill:none; stroke-width:2; stroke:rgb(127,0,0)"/>
<text x="66" y="20" style="fill:black; text-anchor:middle;font-size:16px">Polyline(x, y, ...style)</text>
</g>
<g id="arc">
<circle cx="0" cy="0" r="4" style="fill:rgb(200,200,200)"/>
<text x="0" y="-15" style="fill:gray; text-anchor:middle">sx, sy</text>
<circle cx="100" cy="0" r="4" style="fill:rgb(200,200,200)"/>
<text x="100" y="-15" style="fill:gray; text-anchor:middle">ex, ey</text>
<path d="M0,0 A50,40 0 0 1 100,0" style="fill:none; stroke-width:2; stroke:rgb(127,0,0)"/>
<text x="50" y="15" style="fill:black; text-anchor:middle;font-size:16px">Arc(sx, sy, ax, ay, r, lflag, sflag, ex, ey, ...style)</text>
</g>
<g id="path">
<path d="M36,5l12,41l12-41h33v4l-13,21c30,10,2,69-21,28l7-2c15,27,33,-22,3,-19v-4l12-20h-15l-17,59h-1l-13-42l-12,42h-1l-20-67h9l12,41l8-28l-4-13h9" fill="#AA0000" />
<path d="M94,53c15,32,30,14,35,7l-1-7c-16,26-32,3-34,0M122,16c-10-21-34,0-21,30c-5-30 16,-38 23,-21l5-10l-2-9" />
<circle cx="0" cy="0" r="4" style="fill:rgb(200,200,200)"/>
<text x="0" y="-15" style="fill:gray; text-anchor:middle">x, y</text>
<text x="50" y="105" style="fill:black; text-anchor:middle;font-size:16px">Path(s, ...style)</text>
</g>
<g id="qbez">
<circle cx="0" cy="0" r="4" style="fill:rgb(200,200,200)"/>
<text x="0" y="-15" style="fill:gray; text-anchor:middle">sx, sy</text>
<circle cx="100" cy="80" r="4" style="fill:rgb(200,200,200)"/>
<text x="100" y="65" style="fill:gray; text-anchor:middle">cx, cy</text>
<circle cx="200" cy="0" r="4" style="fill:rgb(200,200,200)"/>
<text x="200" y="-15" style="fill:gray; text-anchor:middle">ex, ey</text>
<path d="M0,0 Q100,80 200,0" style="fill:none; stroke-width:2; stroke:rgb(127,0,0)"/>
<text x="100" y="105" style="fill:black; text-anchor:middle;font-size:16px">Qbez(sx, sy, cx, cy, ex, ey, ...style)</text>
</g>
<g id="qbezier">
<circle cx="0" cy="0" r="4" style="fill:rgb(200,200,200)"/>
<text x="0" y="-15" style="fill:gray; text-anchor:middle">sx, sy</text>
<circle cx="100" cy="-50" r="4" style="fill:rgb(200,200,200)"/>
<text x="100" y="-65" style="fill:gray; text-anchor:middle">cx, cy</text>
<circle cx="100" cy="50" r="4" style="fill:rgb(200,200,200)"/>
<text x="100" y="35" style="fill:gray; text-anchor:middle">ex, ey</text>
<circle cx="200" cy="0" r="4" style="fill:rgb(200,200,200)"/>
<text x="200" y="-15" style="fill:gray; text-anchor:middle">tx, ty</text>
<path d="M0,0 Q100,-50 100,50 T200,0" style="fill:none; stroke-width:2; stroke:rgb(127,0,0)"/>
<text x="100" y="105" style="fill:black; text-anchor:middle;font-size:16px">Qbezier(sx, sy, cx, cy, ex, ey, tx, ty, ...style)</text>
</g>
<g id="bezier">
<circle cx="0" cy="0" r="4" style="fill:rgb(200,200,200)"/>
<text x="0" y="-15" style="fill:gray; text-anchor:middle">sx, sy</text>
<circle cx="100" cy="-50" r="4" style="fill:rgb(200,200,200)"/>
<text x="100" y="-65" style="fill:gray; text-anchor:middle">cx, cy</text>
<circle cx="100" cy="50" r="4" style="fill:rgb(200,200,200)"/>
<text x="100" y="35" style="fill:gray; text-anchor:middle">px, py</text>
<circle cx="200" cy="0" r="4" style="fill:rgb(200,200,200)"/>
<text x="200" y="-15" style="fill:gray; text-anchor:middle">ex, ey</text>
<path d="M0,0 C100,-50 100,50 200,0" style="fill:none; stroke-width:2; stroke:rgb(127,0,0)"/>
<text x="100" y="75" style="fill:black; text-anchor:middle;font-size:16px">Bezier(sx, sy, cx, cy, px, py, ex, ey, ...style)</text>
</g>
<g id="image">
<circle cx="0" cy="0" r="4" style="fill:rgb(200,200,200)"/>
<text x="0" y="-15" style="fill:gray; text-anchor:middle">x, y</text>
<rect x="0" y="0" width="128" height="128" style="fill:none; stroke-width:2; stroke:rgb(127,0,0)"/>
<text x="-15" y="64" style="fill:gray; text-anchor:middle">h</text>
<text x="64" y="-15" style="fill:gray; text-anchor:middle">w</text>
<image x="0" y="0" width="128" height="128" xlink:href="images/gophercolor128x128.png" />
<text x="64" y="143" style="fill:black; text-anchor:middle;font-size:16px">Image(x, y, w, h, path, ...style)</text>
</g>
<g id="lgrad">
<circle cx="0" cy="0" r="4" style="fill:rgb(200,200,200)"/>
<text x="0" y="-15" style="fill:gray; text-anchor:middle">x1%, y1%</text>
<circle cx="200" cy="0" r="4" style="fill:rgb(200,200,200)"/>
<text x="200" y="-15" style="fill:gray; text-anchor:middle">x2%, y2%</text>
<rect x="0" y="0" width="200" height="100" style="fill:url(#linear)"/>
<text x="100" y="115" style="fill:black; text-anchor:middle;font-size:16px">LinearGradient(id, x1, y1, x2, y2, Offcolor)</text>
</g>
<g id="rgrad">
<circle cx="0" cy="0" r="4" style="fill:rgb(200,200,200)"/>
<text x="0" y="-15" style="fill:gray; text-anchor:middle">cx%, cy%</text>
<rect x="0" y="0" width="200" height="100" style="fill:url(#radial)"/>
<circle cx="100" cy="50" r="4" style="fill:rgb(200,200,200)"/>
<text x="100" y="35" style="fill:gray; text-anchor:middle">fx%, fy%</text>
<text x="100" y="115" style="fill:black; text-anchor:middle;font-size:16px">RadialGradient(id, cx, cy, r, fx, fy, Offcolor)</text>
</g>
<g id="trans">
<circle cx="0" cy="0" r="4" style="fill:rgb(200,200,200)"/>
<text x="0" y="-15" style="fill:gray; text-anchor:middle">0, 0</text>
<circle cx="134" cy="0" r="4" style="fill:rgb(200,200,200)"/>
<text x="134" y="-15" style="fill:gray; text-anchor:middle">x, y</text>
<text x="100" y="115" style="fill:black; text-anchor:middle;font-size:16px">Translate(x, y)</text>
<rect x="0" y="0" width="66" height="100" style="fill:none; stroke-width:2; stroke:rgb(127,0,0)"/>
<g transform="translate(134,0)">
<rect x="0" y="0" width="66" height="100" style="fill:rgb(127,0,0);fill-opacity:0.25"/>
</g>
</g>
<g id="grid">
<g style="stroke:rgb(127,0,0)">
<line x1="0" y1="0" x2="0" y2="100" />
<line x1="25" y1="0" x2="25" y2="100" />
<line x1="50" y1="0" x2="50" y2="100" />
<line x1="75" y1="0" x2="75" y2="100" />
<line x1="100" y1="0" x2="100" y2="100" />
<line x1="125" y1="0" x2="125" y2="100" />
<line x1="150" y1="0" x2="150" y2="100" />
<line x1="175" y1="0" x2="175" y2="100" />
<line x1="200" y1="0" x2="200" y2="100" />
<line x1="0" y1="0" x2="200" y2="0" />
<line x1="0" y1="25" x2="200" y2="25" />
<line x1="0" y1="50" x2="200" y2="50" />
<line x1="0" y1="75" x2="200" y2="75" />
<line x1="0" y1="100" x2="200" y2="100" />
</g>
<text x="100" y="115" style="fill:black; text-anchor:middle;font-size:16px">Grid(x, y, w, h, n, ...style)</text>
</g>
<g id="text">
<text x="100" y="100" style="font-size:48pt">hello</text>
<text x="100" y="115" style="fill:black; text-anchor:middle;font-size:16px">Text(x, y, s, ...style)</text>
</g>
<g id="scale">
<rect x="0" y="0" width="200" height="100" style="fill:none; stroke-width:2; stroke:rgb(127,0,0)"/>
<g transform="scale(0.5)">
<rect x="0" y="0" width="200" height="100" style="fill:rgb(127,0,0);fill-opacity:0.25"/>
</g>
<text x="100" y="115" style="fill:black; text-anchor:middle;font-size:16px">Scale(n)</text>
</g>
<g id="rotate">
<text x="100" y="115" style="fill:black; text-anchor:middle;font-size:16px">Rotate(n)</text>
<rect x="0" y="0" width="200" height="100" style="fill:rgb(127,0,0);fill-opacity:0.25"/>
<g transform="rotate(30)">
<rect x="0" y="0" width="200" height="100" style="fill:none; stroke-width:2; stroke:rgb(127,0,0)"/>
</g>
</g>
</defs>
<desc>Object Usage</desc>
<g transform="translate(140,200)">
<use x="0" y="0" xlink:href="#square" />
<use x="300" y="0" xlink:href="#rectangle" />
<use x="600" y="0" xlink:href="#roundrect" />
<use x="950" y="0" xlink:href="#polygon" />
</g>
<g transform="translate(140,450)">
<use x="50" y="0" xlink:href="#circle" />
<use x="375" y="0" xlink:href="#ellipse" />
<use x="600" y="0" xlink:href="#line" />
<use x="950" y="0" xlink:href="#polyline" />
</g>
<g transform="translate(140,700)">
<use x="0" y="0" xlink:href="#arc" />
<use x="300" y="0" xlink:href="#path" />
<use x="600" y="0" xlink:href="#qbez" />
<use x="950" y="0" xlink:href="#qbezier" />
</g>
<g transform="translate(140,950)">
<use x="0" y="0" xlink:href="#bezier" />
<use x="300" y="0" xlink:href="#image" />
<use x="600" y="0" xlink:href="#lgrad" />
<use x="950" y="0" xlink:href="#rgrad" />
</g>
<g transform="translate(140,1200)">
<use x="0" y="0" xlink:href="#trans" />
<use x="300" y="0" xlink:href="#scale" />
<use x="600" y="0" xlink:href="#rotate" />
<use x="950" y="0" xlink:href="#grid" />
</g>
</g>
</svg>
