<?xml version="1.0"?>
<svg xmlns="http://www.w3.org/2000/svg"
     xmlns:xlink="http://www.w3.org/1999/xlink"
     width="760" height="760">
<title>Go SVG Package</title>
<rect x="0" y="0" width="760" height="760" style="fill:rgb(255,255,255)"/>
<desc>Objects</desc>
<g style="font-family:Calibri; text-anchor:middle; font-size:14">
<text x="60" y="40" style="font-size:24; text-anchor:start">Go SVG Package</text>
<circle cx="355" cy="320" r="4" style="fill:rgb(200,200,200)"/>
<text x="355" y="305" style="fill:gray">x, y</text>
<circle cx="355" cy="320" r="50" style="fill:none; stroke-width:2; stroke:rgb(127,0,0); opacity:0.75"/>
<line x1="355" y1="320" x2="405" y2="320" style="stroke:gray; stroke-width:1"/>
<text x="380" y="335" style="fill:gray">r</text>
<text x="355" y="385" style="fill:black">svg.Circle(x, y, r, style)</text>
<circle cx="140" cy="320" r="4" style="fill:rgb(200,200,200)"/>
<text x="140" y="305" style="fill:gray">x, y</text>
<ellipse cx="140" cy="320" rx="100" ry="50" style="fill:none; stroke-width:2; stroke:rgb(127,0,0); opacity:0.75"/>
<line x1="140" y1="320" x2="240" y2="320" style="stroke:gray; stroke-width:1"/>
<text x="190" y="335" style="fill:gray">w</text>
<line x1="140" y1="320" x2="140" y2="370" style="stroke:gray; stroke-width:1"/>
<text x="125" y="345" style="fill:gray">h</text>
<text x="140" y="385" style="fill:black">svg.Ellipse(x, y, w, h, style)</text>
<circle cx="60" cy="100" r="4" style="fill:rgb(200,200,200)"/>
<text x="60" y="85" style="fill:gray">x, y</text>
<rect x="60" y="100" width="160" height="100" style="fill:none; stroke-width:2; stroke:rgb(127,0,0); opacity:0.75"/>
<text x="45" y="150" style="fill:gray">h</text>
<text x="140" y="85" style="fill:gray">w</text>
<text x="140" y="215" style="fill:black">svg.Rect(x, y, w, h, style)</text>
<circle cx="300" cy="100" r="4" style="fill:rgb(200,200,200)"/>
<text x="300" y="85" style="fill:gray">x, y</text>
<rect x="300" y="100" width="100" height="100" style="fill:none; stroke-width:2; stroke:rgb(127,0,0); opacity:0.75"/>
<text x="350" y="85" style="fill:gray">w</text>
<text x="350" y="215" style="fill:black">svg.Square(x, y, w, style)</text>
<circle cx="480" cy="50" r="4" style="fill:rgb(200,200,200)"/>
<text x="480" y="35" style="fill:gray">x, y</text>
<rect x="480" y="50" width="250" height="150" rx="40" ry="40" style="fill:none; stroke-width:2; stroke:rgb(127,0,0); opacity:0.75"/>
<text x="465" y="125" style="fill:gray">h</text>
<text x="605" y="35" style="fill:gray">w</text>
<line x1="520" y1="50" x2="520" y2="90" style="stroke:gray; stroke-width:1"/>
<line x1="480" y1="90" x2="520" y2="90" style="stroke:gray; stroke-width:1"/>
<text x="535" y="70" style="fill:gray">ry</text>
<text x="500" y="105" style="fill:gray">rx</text>
<text x="605" y="215" style="fill:black">svg.Roundrect(x, y, w, h, rx, ry, style)</text>
<circle cx="480" cy="700" r="4" style="fill:rgb(200,200,200)"/>
<text x="480" y="685" style="fill:gray">sx, sy</text>
<circle cx="725" cy="700" r="4" style="fill:rgb(200,200,200)"/>
<text x="725" y="685" style="fill:gray">ex, ey</text>
<path d="M480,700 A20,10 0 0 1 725,700" style="fill:none; stroke-width:2; stroke:rgb(127,0,0); opacity:0.75"/>
<text x="602" y="720" style="fill:black">svg.Arc(sx, sy, ax, ay, r, lflag, sflag, style)</text>
<circle cx="480" cy="350" r="4" style="fill:rgb(200,200,200)"/>
<text x="480" y="335" style="fill:gray">sx, sy</text>
<circle cx="600" cy="290" r="4" style="fill:rgb(200,200,200)"/>
<text x="600" y="275" style="fill:gray">cx, cy</text>
<circle cx="600" cy="400" r="4" style="fill:rgb(200,200,200)"/>
<text x="600" y="385" style="fill:gray">px, py</text>
<circle cx="725" cy="350" r="4" style="fill:rgb(200,200,200)"/>
<text x="725" y="335" style="fill:gray">ex, ey</text>
<path d="M480,350 C600,290 600,400 725,350" style="fill:none; stroke-width:2; stroke:rgb(127,0,0); opacity:0.75"/>
<text x="600" y="425" style="fill:black">svg.Bezier(sx, sy, cx, cy, px, py, ex, ey, style)</text>
<circle cx="480" cy="500" r="4" style="fill:rgb(200,200,200)"/>
<text x="480" y="485" style="fill:gray">sx, sy</text>
<circle cx="600" cy="500" r="4" style="fill:rgb(200,200,200)"/>
<text x="600" y="485" style="fill:gray">cx, cy</text>
<circle cx="600" cy="550" r="4" style="fill:rgb(200,200,200)"/>
<text x="600" y="535" style="fill:gray">ex, ey</text>
<circle cx="725" cy="500" r="4" style="fill:rgb(200,200,200)"/>
<text x="725" y="485" style="fill:gray">tx, ty</text>
<path d="M480,500 Q600,500 600,550 T725,500" style="fill:none; stroke-width:2; stroke:rgb(127,0,0); opacity:0.75"/>
<text x="600" y="575" style="fill:black">svg.Qbezier(sx, sy, cx, cy, ex, ey, tx, ty, style)</text>
<circle cx="60" cy="440" r="4" style="fill:rgb(200,200,200)"/>
<text x="60" y="425" style="fill:gray">x1, y1</text>
<circle cx="400" cy="440" r="4" style="fill:rgb(200,200,200)"/>
<text x="400" y="425" style="fill:gray">x2, y2</text>
<line x1="60" y1="440" x2="400" y2="440" style="fill:none; stroke-width:2; stroke:rgb(127,0,0); opacity:0.75"/>
<text x="230" y="455" style="fill:black">svg.Line(x1, y1, x2, y2)</text>
<circle cx="60" cy="610" r="4" style="fill:rgb(200,200,200)"/>
<text x="60" y="595" style="fill:gray">x, y</text>
<circle cx="110" cy="585" r="4" style="fill:rgb(200,200,200)"/>
<text x="110" y="570" style="fill:gray">x, y</text>
<circle cx="160" cy="610" r="4" style="fill:rgb(200,200,200)"/>
<text x="160" y="595" style="fill:gray">x, y</text>
<circle cx="160" cy="660" r="4" style="fill:rgb(200,200,200)"/>
<text x="160" y="645" style="fill:gray">x, y</text>
<circle cx="110" cy="690" r="4" style="fill:rgb(200,200,200)"/>
<text x="110" y="675" style="fill:gray">x, y</text>
<circle cx="60" cy="660" r="4" style="fill:rgb(200,200,200)"/>
<text x="60" y="645" style="fill:gray">x, y</text>
<circle cx="60" cy="610" r="4" style="fill:rgb(200,200,200)"/>
<text x="60" y="595" style="fill:gray">x, y</text>
<polygon points="60,610 110,585 160,610 160,660 110,690 60,660 60,610 " style="fill:none; stroke-width:2; stroke:rgb(127,0,0); opacity:0.75"/>
<text x="110" y="715" style="fill:black">svg.Polygon(x, y, style)</text>
<circle cx="60" cy="520" r="4" style="fill:rgb(200,200,200)"/>
<text x="60" y="505" style="fill:gray">x, y</text>
<circle cx="160" cy="490" r="4" style="fill:rgb(200,200,200)"/>
<text x="160" y="475" style="fill:gray">x, y</text>
<circle cx="260" cy="520" r="4" style="fill:rgb(200,200,200)"/>
<text x="260" y="505" style="fill:gray">x, y</text>
<circle cx="400" cy="490" r="4" style="fill:rgb(200,200,200)"/>
<text x="400" y="475" style="fill:gray">x, y</text>
<polyline points="60,520 160,490 260,520 400,490 " style="fill:none; stroke-width:2; stroke:rgb(127,0,0); opacity:0.75"/>
<text x="160" y="525" style="fill:black">svg.Polyline(x, y, style)</text>
<circle cx="272" cy="575" r="4" style="fill:rgb(200,200,200)"/>
<text x="272" y="560" style="fill:gray">x, y</text>
<rect x="272" y="575" width="128" height="128" style="fill:none; stroke-width:2; stroke:rgb(127,0,0); opacity:0.75"/>
<text x="257" y="639" style="fill:gray">h</text>
<text x="336" y="560" style="fill:gray">w</text>
<text x="336" y="718" style="fill:black">svg.Image(x, y, w, h, name, style)</text>
<image x="272" y="575" width="128" height="128" xlink:href="images/gophercolor128x128.png" />
</g>
<desc>20 px grid</desc>
<g style="stroke:rgb(150,150,150); opacity:0.1">
<line x1="0" y1="0" x2="0" y2="760" />
<line x1="20" y1="0" x2="20" y2="760" />
<line x1="40" y1="0" x2="40" y2="760" />
<line x1="60" y1="0" x2="60" y2="760" />
<line x1="80" y1="0" x2="80" y2="760" />
<line x1="100" y1="0" x2="100" y2="760" />
<line x1="120" y1="0" x2="120" y2="760" />
<line x1="140" y1="0" x2="140" y2="760" />
<line x1="160" y1="0" x2="160" y2="760" />
<line x1="180" y1="0" x2="180" y2="760" />
<line x1="200" y1="0" x2="200" y2="760" />
<line x1="220" y1="0" x2="220" y2="760" />
<line x1="240" y1="0" x2="240" y2="760" />
<line x1="260" y1="0" x2="260" y2="760" />
<line x1="280" y1="0" x2="280" y2="760" />
<line x1="300" y1="0" x2="300" y2="760" />
<line x1="320" y1="0" x2="320" y2="760" />
<line x1="340" y1="0" x2="340" y2="760" />
<line x1="360" y1="0" x2="360" y2="760" />
<line x1="380" y1="0" x2="380" y2="760" />
<line x1="400" y1="0" x2="400" y2="760" />
<line x1="420" y1="0" x2="420" y2="760" />
<line x1="440" y1="0" x2="440" y2="760" />
<line x1="460" y1="0" x2="460" y2="760" />
<line x1="480" y1="0" x2="480" y2="760" />
<line x1="500" y1="0" x2="500" y2="760" />
<line x1="520" y1="0" x2="520" y2="760" />
<line x1="540" y1="0" x2="540" y2="760" />
<line x1="560" y1="0" x2="560" y2="760" />
<line x1="580" y1="0" x2="580" y2="760" />
<line x1="600" y1="0" x2="600" y2="760" />
<line x1="620" y1="0" x2="620" y2="760" />
<line x1="640" y1="0" x2="640" y2="760" />
<line x1="660" y1="0" x2="660" y2="760" />
<line x1="680" y1="0" x2="680" y2="760" />
<line x1="700" y1="0" x2="700" y2="760" />
<line x1="720" y1="0" x2="720" y2="760" />
<line x1="740" y1="0" x2="740" y2="760" />
<line x1="760" y1="0" x2="760" y2="760" />
<line x1="0" y1="0" x2="760" y2="0" />
<line x1="0" y1="20" x2="760" y2="20" />
<line x1="0" y1="40" x2="760" y2="40" />
<line x1="0" y1="60" x2="760" y2="60" />
<line x1="0" y1="80" x2="760" y2="80" />
<line x1="0" y1="100" x2="760" y2="100" />
<line x1="0" y1="120" x2="760" y2="120" />
<line x1="0" y1="140" x2="760" y2="140" />
<line x1="0" y1="160" x2="760" y2="160" />
<line x1="0" y1="180" x2="760" y2="180" />
<line x1="0" y1="200" x2="760" y2="200" />
<line x1="0" y1="220" x2="760" y2="220" />
<line x1="0" y1="240" x2="760" y2="240" />
<line x1="0" y1="260" x2="760" y2="260" />
<line x1="0" y1="280" x2="760" y2="280" />
<line x1="0" y1="300" x2="760" y2="300" />
<line x1="0" y1="320" x2="760" y2="320" />
<line x1="0" y1="340" x2="760" y2="340" />
<line x1="0" y1="360" x2="760" y2="360" />
<line x1="0" y1="380" x2="760" y2="380" />
<line x1="0" y1="400" x2="760" y2="400" />
<line x1="0" y1="420" x2="760" y2="420" />
<line x1="0" y1="440" x2="760" y2="440" />
<line x1="0" y1="460" x2="760" y2="460" />
<line x1="0" y1="480" x2="760" y2="480" />
<line x1="0" y1="500" x2="760" y2="500" />
<line x1="0" y1="520" x2="760" y2="520" />
<line x1="0" y1="540" x2="760" y2="540" />
<line x1="0" y1="560" x2="760" y2="560" />
<line x1="0" y1="580" x2="760" y2="580" />
<line x1="0" y1="600" x2="760" y2="600" />
<line x1="0" y1="620" x2="760" y2="620" />
<line x1="0" y1="640" x2="760" y2="640" />
<line x1="0" y1="660" x2="760" y2="660" />
<line x1="0" y1="680" x2="760" y2="680" />
<line x1="0" y1="700" x2="760" y2="700" />
<line x1="0" y1="720" x2="760" y2="720" />
<line x1="0" y1="740" x2="760" y2="740" />
<line x1="0" y1="760" x2="760" y2="760" />
</g>
</svg>
