<?xml version="1.0"?>
<!-- Generated by SVGo -->
<svg width="1024mm" height="768mm"
     viewBox="0 0 1024 768"
     xmlns="http://www.w3.org/2000/svg" 
     xmlns:xlink="http://www.w3.org/1999/xlink">
<rect x="5" y="5" width="20" height="20" style="fill:none;stroke:black;stroke-width:0.2"/>
<rect x="7" y="7" width="16" height="16" rx="2" ry="2" style="fill:none;stroke:black;stroke-width:0.2"/>
<rect x="9" y="9" width="12" height="12" style="fill:none;stroke:black;stroke-width:0.2"/>
<polygon points="10.00,20.00 20.00,20.00 15.00,10.00 10.00,20.00" style="fill:none;stroke:black;stroke-width:0.2"/>
<circle cx="15.00" cy="15.00" r="1.50" style="fill:none;stroke:black;stroke-width:0.2"/>
<ellipse cx="15.00" cy="18.25" rx="3.50" ry="1.00" style="fill:none;stroke:black;stroke-width:0.2"/>
<g transform="translate(30.00,12.50)">
<g transform="translate(5.00,0.00) rotate(45)">
<ellipse cx="0.00" cy="0.00" rx="2.00" ry="10.00" style="fill:red;fill-opacity:0.5;stroke:black;stroke-width:0.2"/>
</g>
<g transform="rotate(45) translate(5.00,0.00)">
<ellipse cx="0.00" cy="0.00" rx="2.00" ry="10.00" style="fill:blue;fill-opacity:0.5;stroke:black;stroke-width:0.2"/>
</g>
</g>
<rect x="5.00" y="27.50" width="20.00" height="5.00" style="fill:none;stroke:black;stroke-width:0.2"/>
<line x1="25.00" y1="26.25" x2="35.00" y2="26.25" style="stroke:black;stroke-width:0.2"/>
<defs>
<marker id="dot" refX="5.00" refY="5.00" markerWidth="8.00" markerHeight="8.00" >
<circle cx="5.00" cy="5.00" r="3.00" style="fill:black"/>
</marker>
</defs>
<polyline points="27.50,30.00 37.50,30.00 37.50,22.50" fill="none" stroke="black" stroke-width="0.2" marker-end="url(#dot)" />
<pattern id="hatch" x="2.50" y="2.50" width="1.65" height="1.65" patternUnits="userSpaceOnUse" >
<g style="fill:none;stroke-width:.2">
<path d="M0,0 l1.65,1.65" style="stroke:red"/>
<path d="M1.65,0 l-1.65,1.65" style="stroke:blue"/>
</g>
</pattern>
<g style="stroke:black; stroke-width:.2">
<circle cx="50" cy="10" r="5" style="fill:url(#hatch)"/>
</g>
</svg>
